<?xml version="1.0" standalone="no"?>
<!DOCTYPE svg PUBLIC "-//W3C//DTD SVG 20010904//EN"
 "http://www.w3.org/TR/2001/REC-SVG-20010904/DTD/svg10.dtd">
<svg version="1.0" xmlns="http://www.w3.org/2000/svg"
 width="560.000000pt" height="560.000000pt" viewBox="0 0 560.000000 560.000000"
 preserveAspectRatio="xMidYMid meet">
<metadata>
Created by potrace 1.11, written by Peter Selinger 2001-2013
</metadata>
<g transform="translate(0.000000,560.000000) scale(0.100000,-0.100000)"
fill="#000000" stroke="none">
<path d="M2583 5410 c-17 -4 -51 -19 -76 -33 -24 -15 -70 -36 -100 -47 -36
-14 -75 -39 -108 -71 -29 -28 -73 -67 -97 -87 -25 -20 -61 -62 -80 -92 -19
-30 -57 -85 -84 -122 -27 -36 -73 -115 -102 -175 -48 -97 -62 -115 -132 -178
-81 -72 -162 -155 -178 -183 -5 -9 -24 -36 -43 -60 -18 -24 -33 -49 -33 -56 0
-7 -9 -30 -19 -52 -51 -105 -63 -181 -49 -306 4 -43 3 -58 -7 -62 -8 -3 -22
-20 -31 -37 -23 -45 -14 -129 30 -277 35 -116 42 -153 51 -284 5 -75 14 -98
55 -143 22 -23 38 -67 75 -200 49 -178 72 -245 111 -333 13 -29 24 -55 24 -57
0 -2 14 -27 30 -55 16 -28 30 -54 30 -58 0 -5 -25 -24 -57 -43 -114 -69 -167
-131 -192 -226 -8 -30 -26 -55 -64 -89 -104 -93 -110 -97 -190 -98 -78 -1
-112 -18 -153 -78 -13 -18 -32 -29 -68 -37 -71 -15 -85 -19 -94 -25 -5 -3 -22
-8 -39 -10 -108 -20 -253 -88 -253 -121 0 -8 -4 -15 -10 -15 -5 0 -13 -12 -16
-27 -15 -63 -157 -235 -330 -404 -60 -58 -114 -112 -120 -120 -10 -14 -54 -93
-126 -228 -15 -29 -53 -131 -83 -225 l-55 -172 0 -262 0 -262 2800 0 2800 0 0
142 c0 78 -7 183 -15 232 -24 154 -44 307 -50 396 -3 47 -15 109 -25 138 -45
120 -60 164 -104 300 -25 78 -46 151 -46 161 0 24 -55 134 -99 196 -30 44
-208 230 -187 197 8 -14 7 -13 -56 20 -13 6 -48 13 -78 14 -30 2 -66 5 -80 8
-59 11 -149 20 -205 21 -56 1 -66 4 -150 60 -50 33 -116 69 -147 80 -51 17
-65 18 -114 7 l-57 -12 -81 46 c-45 26 -97 55 -116 66 -45 26 -121 87 -125
102 -20 74 -52 158 -71 188 -13 21 -24 41 -24 45 0 5 -24 31 -53 60 l-53 51
29 43 c33 48 72 145 81 200 3 20 8 42 10 50 3 8 8 31 11 52 3 20 8 54 12 75 9
43 8 201 -1 321 -5 74 -3 93 19 156 13 39 27 100 30 136 10 119 17 174 27 219
16 75 17 170 2 214 -8 23 -30 57 -48 76 -32 33 -34 41 -45 145 -17 153 -20
172 -43 240 -41 119 -59 143 -289 376 -96 97 -196 210 -224 250 -27 41 -65 91
-85 112 -52 58 -159 141 -216 170 -85 43 -279 75 -351 57z"/>
</g>
</svg>
